<svg xmlns="http://www.w3.org/2000/svg" width="41.896" height="35.471" viewBox="0 0 41.896 35.471"><g transform="translate(-489.629 -33.094)"><path d="M493.309,57.531l-1.815.514a13.853,13.853,0,0,1-1.865.436l4.872-7.446,6.818,4.189-3.6,1.072a11.241,11.241,0,0,0,8.924,9.389,12.421,12.421,0,0,0,9.143-2.058,17.3,17.3,0,0,0,7.78-12.167,15.392,15.392,0,0,0-1.612-10.119,12.034,12.034,0,0,0-4.89-4.965.513.513,0,0,1-.236-.223c.191.083.386.159.572.251a12.08,12.08,0,0,1,6.6,8.228c1.877,7.666-.379,14.155-6.073,19.482a16.129,16.129,0,0,1-8.648,4.257,13.3,13.3,0,0,1-12.467-4.413A15.3,15.3,0,0,1,493.465,58C493.418,57.85,493.365,57.7,493.309,57.531Z" fill="#fff"/><path d="M527.794,44.643l3.731-.907-5.22,7.342-6.629-4.431,3.7-.949c-.239-.863-.405-1.721-.71-2.526A10.72,10.72,0,0,0,514.777,36a12.164,12.164,0,0,0-9.022,1.552,17.28,17.28,0,0,0-8.526,12.244,15.429,15.429,0,0,0,1.167,9.753,12.066,12.066,0,0,0,4.538,5.176.4.4,0,0,1,.187.221c-.1-.048-.2-.09-.3-.143a12.249,12.249,0,0,1-6.2-8.279,18.632,18.632,0,0,1,3.187-15.553,18.4,18.4,0,0,1,9.642-7.153,13.839,13.839,0,0,1,17.281,7.911C527.141,42.655,527.432,43.635,527.794,44.643Z" fill="#fab600"/><path d="M519.043,53.877c.142-.372.267-.7.412-1.076.732.26,2.258.8,3.025,1.067l-.424,1.107C521.309,54.7,519.788,54.153,519.043,53.877Z" fill="#fab600"/><path d="M517.781,61.019c-.285.243-.561.48-.871.746-.459-.658-1.487-2.156-1.955-2.828l.858-.74C516.282,58.861,517.308,60.348,517.781,61.019Z" fill="#fab600"/><path d="M510.532,61.172c.071.764.153,2.5.2,3.22a.343.343,0,0,1-.183.274,6.892,6.892,0,0,1-.815.126c-.056-.773-.126-2.509-.156-3.23,0-.092.147-.239.255-.275A4.365,4.365,0,0,1,510.532,61.172Z" fill="#fab600"/><path d="M503.817,63.878,503,63.459c.3-.727,1-2.507,1.311-3.247l.814.4C504.827,61.343,504.127,63.125,503.817,63.878Z" fill="#fab600"/><path d="M499,59.467c-.47-.76-.469-.759.141-1.309.3-.274,1.43-1.346,1.776-1.664l.449.791C500.859,57.744,499.533,58.987,499,59.467Z" fill="#fab600"/><path d="M519.669,39.508l.62.7c-.49.442-2.238,2.145-2.742,2.6l-.631-.7C517.413,41.666,519.171,39.955,519.669,39.508Z" fill="#fab600"/><path d="M512.957,39.42c.181-.443.834-2.1.951-2.51s.333-.5.7-.353c.093.038.192.061.343.107-.212.53-.864,2.321-1.085,2.824-.029.067-.193.12-.284.107A5.129,5.129,0,0,1,512.957,39.42Z" fill="#fab600"/><path d="M497.447,52.983a.287.287,0,0,1-.027-.066c-.069-.847-.07-.848.731-1.043.211-.052,1.424-.523,1.631-.568.261.726.182.883-.5,1.053-.185.046-1.37.525-1.556.57C497.645,52.949,497.558,52.962,497.447,52.983Z" fill="#fab600"/><path d="M508.685,36.865c.016.281,0,2.328.028,2.576.078.794.027.857-.8.931-.021-.248-.037-.5-.064-.744C507.758,38.8,507.775,37.005,508.685,36.865Z" fill="#fab600"/><path d="M503.769,42.716c-.089-.122-.9-1.231-.988-1.35-.5-.71-.5-.71.263-1.26l.351.491c.11.155.946,1.3,1.1,1.524Z" fill="#fab600"/><path d="M501.367,46.293l-.376.9c-.394-.142-1.913-.664-2.333-.815l.365-.873Z" fill="#fab600"/><path d="M506.145,47.891v.047a3.893,3.893,0,0,1-1.038,2.419,21,21,0,0,1-3.005,2.81h2.662l-.29,1.012h-4.111l.179-.633.184-.632a35.489,35.489,0,0,0,3.153-3.137,3.054,3.054,0,0,0,.864-1.7.344.344,0,0,0-.14-.29.631.631,0,0,0-.387-.1.5.5,0,0,0-.424.242,2.524,2.524,0,0,0-.3.807h-1.386a2.875,2.875,0,0,1,.722-1.576,2.027,2.027,0,0,1,1.455-.485,2.52,2.52,0,0,1,1.386.316A1.016,1.016,0,0,1,506.145,47.891Z" fill="#fff"/><path d="M505.744,52.545l.19-.664.2-.664,3.263-4.47h1.919l-1.388,4.786h.79l-.29,1.012h-.794l-.474,1.634h-1.4l.474-1.634Zm2.773-1.012,1-3.429-2.278,3.113-.238.316Z" fill="#fff"/><path d="M514.505,46.741l-3.435,8.4h-1.014l3.435-8.4Z" fill="#fff"/><path d="M513.7,54.179l3.825-6.22.122-.2h-2.68l.295-1.012h3.985l-.174.606-.179.606-3.484,6.22Z" fill="#fff"/></g></svg>