<svg xmlns="http://www.w3.org/2000/svg" width="238.612" height="26.54" viewBox="0 0 238.612 26.54"><g transform="translate(-273 -4526.333)"><path d="M511.612,4552.874H273v-26.54H511.612v26.54Z" fill="#00357d"/><path d="M290.865,4526.806h7.867q4.49,0,6.112,1.394c1.079.928,1.625,2.67,1.625,5.225v-.507q0,3.883-1.764,5.248a6.978,6.978,0,0,1-3.3,1.116,7.857,7.857,0,0,1,3.557,1.184q1.839,1.347,1.837,5.1v-.521c0,2.852-.582,4.785-1.747,5.773s-3.415,1.484-6.757,1.484h-7.433v-25.5Zm5.322,10.6h1.077a4.654,4.654,0,0,0,3.148-.767c.526-.52.776-1.535.776-3.067v.5a3.669,3.669,0,0,0-.765-2.712,4.226,4.226,0,0,0-2.864-.723h-1.372v6.765Zm0,11.073h1.678a3.843,3.843,0,0,0,2.891-.816,5.2,5.2,0,0,0,.719-3.267v.523q0-2.273-.728-2.978c-.491-.468-1.527-.705-3.131-.705h-1.429v7.243Z" fill="#fff"/><path d="M298.3,4552.394h-7.52v-25.673h7.954c3,0,5.077.474,6.168,1.414,1.024.883,1.579,2.492,1.649,4.783h.007l-.007.507c-.075,2.331-.677,3.95-1.787,4.806a6.363,6.363,0,0,1-2.795,1.051,7.32,7.32,0,0,1,3.049,1.115c1.154.847,1.782,2.41,1.864,4.653h.008l-.005.521c-.071,2.592-.666,4.378-1.77,5.316C303.941,4551.89,301.649,4552.394,298.3,4552.394Zm-7.347-.171H298.3c3.306,0,5.563-.494,6.7-1.466,1.1-.934,1.674-2.758,1.714-5.431-.04-2.327-.645-3.942-1.8-4.79a7.845,7.845,0,0,0-3.516-1.171v-.168a6.908,6.908,0,0,0,3.256-1.1c1.11-.858,1.689-2.517,1.726-4.931-.034-2.374-.573-4.023-1.593-4.906-1.061-.907-3.1-1.371-6.054-1.371h-7.781Zm6.914-3.659H296.1v-7.411h1.517c1.638,0,2.681.235,3.192.731a3.7,3.7,0,0,1,.745,2.512h.01l-.01.523a4.62,4.62,0,0,1-.731,2.8A3.948,3.948,0,0,1,297.865,4548.564Zm-1.592-.168h1.592a3.791,3.791,0,0,0,2.825-.789,4.815,4.815,0,0,0,.7-2.937,3.939,3.939,0,0,0-.705-2.669c-.469-.451-1.5-.679-3.068-.679h-1.343Zm.991-10.906H296.1v-6.933h1.46a4.316,4.316,0,0,1,2.926.746,3.264,3.264,0,0,1,.778,2.269h.014l-.012.5a3.865,3.865,0,0,1-.791,2.62A4.724,4.724,0,0,1,297.264,4537.49Zm-.991-.171h.991a4.585,4.585,0,0,0,3.088-.744,3.963,3.963,0,0,0,.746-2.733,3.372,3.372,0,0,0-.736-2.415,4.159,4.159,0,0,0-2.8-.7h-1.286Z" fill="#00357d"/><path d="M316.032,4526.806h6.242l5.908,25.5h-5.144l-1.031-5.5h-5.668l-1.063,5.5h-5.15l5.906-25.5Zm1.014,16.2h4.265l-2.113-11.429h0l-2.155,11.429Z" fill="#fff"/><path d="M328.292,4552.394h-5.327l-1.033-5.506h-5.521l-1.062,5.506h-5.334l5.946-25.673h6.384l.014.068Zm-5.181-.171h4.963l-5.869-25.332h-6.1l-5.867,25.332H315.2l1.064-5.5h5.81Zm-1.694-9.132h-4.476l.021-.1,2.15-11.4-.019-.1h.212l-.015.1Zm-4.266-.172h4.057l-2.01-10.856Z" fill="#00357d"/><path d="M336.5,4552.308h-4.367v-25.5h7.836l4.516,21.534v-21.534h4.363v25.5h-7.807l-4.541-21.7v21.7Z" fill="#fff"/><path d="M348.937,4552.394h-7.965l-4.382-20.949v20.949h-4.54v-25.673h7.99l.016.069L344.4,4547.5v-20.776h4.539Zm-7.822-.171h7.647v-25.332h-4.19v21.448l-.172.014-4.5-21.462h-7.676v25.332h4.19V4530.6l.174-.014Z" fill="#00357d"/><path d="M361.546,4552.7c-3,0-5.1-.757-6.272-2.291s-1.778-4.222-1.8-8.088v-6.046c.02-3.481.689-6,2.035-7.538s3.521-2.316,6.553-2.316c2.636,0,4.6.626,5.878,1.881s1.875,3.13,1.793,5.632v.758h-5.287v-.758a4.51,4.51,0,0,0-.646-2.761,2.369,2.369,0,0,0-2.063-.916,2.339,2.339,0,0,0-2.28,1.253,10.618,10.618,0,0,0-.659,4.481v6.035c0,2.788.207,4.621.619,5.513a2.523,2.523,0,0,0,2.548,1.326,11.909,11.909,0,0,0,2.443-.4V4542.6h-2.462v-3.8h7.787v12.885a37.057,37.057,0,0,1-8.206,1.01Z" fill="#fff"/><path d="M361.546,4552.787h-.017c-3.017,0-5.143-.786-6.327-2.328-1.183-1.523-1.795-4.26-1.813-8.138v-6.046c.018-3.5.71-6.052,2.055-7.593,1.356-1.558,3.582-2.348,6.62-2.348,2.647,0,4.648.645,5.941,1.9s1.9,3.181,1.815,5.7v.84h-5.46v-.841a4.389,4.389,0,0,0-.625-2.71,2.288,2.288,0,0,0-2-.884,2.263,2.263,0,0,0-2.2,1.206,10.609,10.609,0,0,0-.65,4.445v6.035c0,2.76.2,4.6.61,5.477a2.427,2.427,0,0,0,2.469,1.278,11.461,11.461,0,0,0,2.354-.381v-5.711H361.86v-3.966h7.96v13.031l-.065.017a37.429,37.429,0,0,1-8.209,1.016Zm.518-26.283c-2.982,0-5.167.77-6.488,2.286s-1.994,4.031-2.014,7.485v6.046c.02,3.839.618,6.542,1.78,8.037,1.146,1.5,3.23,2.255,6.188,2.257a37.433,37.433,0,0,0,8.117-.993v-12.728h-7.613v3.623H364.5v6.017l-.066.015a12.027,12.027,0,0,1-2.463.4,2.616,2.616,0,0,1-2.625-1.381c-.425-.909-.628-2.722-.628-5.546v-6.035a10.753,10.753,0,0,1,.667-4.52,2.427,2.427,0,0,1,2.358-1.3,2.474,2.474,0,0,1,2.134.952,4.525,4.525,0,0,1,.662,2.811v.672h5.112v-.672c.081-2.474-.51-4.345-1.762-5.575S364.663,4526.5,362.064,4526.5Z" fill="#00357d"/><path d="M374.665,4552.308v-25.5h5.326v21.711h6.765v3.791Z" fill="#fff"/><path d="M386.842,4552.394H374.577v-25.673h5.5v21.712h6.766Zm-12.09-.171H386.67v-3.62H379.9v-21.712h-5.15Z" fill="#00357d"/><path d="M395.446,4526.806H401.7l5.907,25.5h-5.15l-1.027-5.5h-5.661l-1.066,5.5h-5.153l5.9-25.5Zm1.021,16.2h4.265l-2.112-11.429h0l-2.153,11.429Z" fill="#fff"/><path d="M407.713,4552.394h-5.334l-1.027-5.506h-5.516l-1.067,5.506h-5.331l.023-.1,5.918-25.572h6.388l.014.068Zm-5.189-.171h4.968l-5.866-25.332h-6.109l-5.861,25.332h4.969l1.066-5.5H401.5Zm-1.686-9.132h-4.475l.018-.1,2.153-11.428h.172Zm-4.264-.172h4.054l-2.008-10.866Z" fill="#00357d"/><path d="M424.081,4530.6h-5.616v-3.8H435v3.8h-5.6v21.7h-5.317v-21.7Z" fill="#fff"/><path d="M429.487,4552.394h-5.494v-21.7h-5.615v-3.97h16.713v3.97h-5.6Zm-5.319-.171h5.143v-21.7h5.6v-3.629H418.551v3.629h5.617Z" fill="#00357d"/><path d="M438.394,4526.806h7.825c2.793,0,4.783.507,5.984,1.518s1.791,2.714,1.791,5.1c0,2.694-.608,4.514-1.808,5.46a7.078,7.078,0,0,1-2.786,1.1h.3a3.955,3.955,0,0,1,3.291,1.4,5.853,5.853,0,0,1,.987,4.008c-.037.984-.052,2.015-.037,3.087.027,1.107.057,1.947.115,2.518a5.046,5.046,0,0,0,.221,1.3h-5.319a6.14,6.14,0,0,1-.188-1.261c-.033-.573-.05-1.419-.05-2.553v-3.087a2.874,2.874,0,0,0-3.435-3.492h-1.563v10.407h-5.324v-25.5ZM443.718,4538H445.2a3.781,3.781,0,0,0,2.767-.752,4.566,4.566,0,0,0,.7-2.99,4.129,4.129,0,0,0-.738-2.856,3.761,3.761,0,0,0-2.726-.759h-1.487V4538Z" fill="#fff"/><path d="M443.807,4552.394h-5.5v-25.673h7.91c2.8,0,4.829.518,6.04,1.541s1.821,2.767,1.821,5.163c0,2.707-.62,4.566-1.843,5.526a6.216,6.216,0,0,1-2.158.957,3.921,3.921,0,0,1,2.975,1.421,5.955,5.955,0,0,1,1.007,4.063c-.039.981-.053,2.017-.039,3.087.03,1.248.065,2,.117,2.51a4.991,4.991,0,0,0,.215,1.272l.04.114h-5.505l-.019-.06a6.349,6.349,0,0,1-.19-1.276c-.036-.6-.053-1.487-.053-2.56v-3.087a2.794,2.794,0,0,0-3.346-3.406h-1.474Zm-5.325-.171h5.15v-10.409h1.649a3.808,3.808,0,0,1,2.76.813,3.755,3.755,0,0,1,.759,2.765v3.087c0,1.069.019,1.953.055,2.548a6.165,6.165,0,0,0,.163,1.178h5.134a5.385,5.385,0,0,1-.186-1.2c-.053-.52-.089-1.273-.117-2.523-.012-1.074,0-2.115.038-3.095a5.772,5.772,0,0,0-.971-3.949,3.881,3.881,0,0,0-3.22-1.372h-.3l-.019-.169a6.986,6.986,0,0,0,2.75-1.079c1.178-.926,1.775-2.744,1.775-5.394,0-2.345-.593-4.04-1.759-5.036s-3.174-1.5-5.928-1.5h-7.737Zm6.723-14.139h-1.573v-7.527H445.2a3.855,3.855,0,0,1,2.791.785,4.177,4.177,0,0,1,.761,2.914,4.586,4.586,0,0,1-.721,3.045A3.854,3.854,0,0,1,445.2,4538.084Zm-1.4-.171h1.4a3.706,3.706,0,0,0,2.7-.727,4.506,4.506,0,0,0,.677-2.93,4.083,4.083,0,0,0-.715-2.8,3.7,3.7,0,0,0-2.663-.735h-1.4Z" fill="#00357d"/><path d="M463.026,4526.806h6.243l5.91,25.5h-5.151L469,4546.8H463.33l-1.064,5.5h-5.144l5.9-25.5Zm1.016,16.2h4.272l-2.127-11.429h.015l-2.16,11.429Z" fill="#fff"/><path d="M475.287,4552.394h-5.334l-1.021-5.506h-5.526l-1.068,5.506h-5.327l5.948-25.673h6.38l.019.068Zm-5.188-.171h4.967l-5.866-25.332h-6.1l-5.869,25.332h4.964l1.067-5.5h5.819Zm-1.68-9.132H463.94l.018-.1,2.147-11.378-.021-.117h.21l-.011.117Zm-4.272-.172h4.061l-2.015-10.833Z" fill="#00357d"/><path d="M494.524,4543.653v.755c.053,2.988-.517,5.116-1.693,6.39s-3.18,1.9-6,1.9c-2.982,0-5.089-.7-6.3-2.074-1.234-1.381-1.842-3.749-1.842-7.109v-7.873c0-3.389.608-5.776,1.842-7.153,1.215-1.376,3.322-2.07,6.3-2.07,2.6,0,4.516.648,5.775,1.938a7.35,7.35,0,0,1,1.749,5.367v1.244H489.07v-.757a5.927,5.927,0,0,0-.529-2.976,1.829,1.829,0,0,0-1.71-.98,2.307,2.307,0,0,0-2.159,1.124,7.657,7.657,0,0,0-.661,3.686v7.871a12.07,12.07,0,0,0,.613,4.623,2.229,2.229,0,0,0,2.207,1.3,1.956,1.956,0,0,0,1.839-1.107,6.866,6.866,0,0,0,.561-3.35v-.755Z" fill="#fff"/><path d="M486.831,4552.787c-3,0-5.138-.708-6.372-2.1-1.253-1.405-1.863-3.75-1.863-7.167v-7.873c0-3.4.627-5.827,1.863-7.211s3.374-2.1,6.372-2.1c2.6,0,4.563.661,5.836,1.962a7.477,7.477,0,0,1,1.777,5.43v1.329h-5.46v-.842a5.872,5.872,0,0,0-.52-2.935,1.728,1.728,0,0,0-1.633-.938,2.213,2.213,0,0,0-2.085,1.087,7.617,7.617,0,0,0-.651,3.64v7.871a12.09,12.09,0,0,0,.607,4.587,2.133,2.133,0,0,0,2.129,1.256,1.862,1.862,0,0,0,1.761-1.065,6.824,6.824,0,0,0,.554-3.3v-.844h5.467v.84c.051,2.988-.527,5.158-1.717,6.446S489.66,4552.787,486.831,4552.787Zm0-26.283c-2.944,0-5.044.691-6.237,2.042-1.21,1.348-1.821,3.738-1.821,7.1v7.873c0,3.329.611,5.7,1.821,7.052,1.193,1.358,3.293,2.046,6.237,2.046,2.781,0,4.779-.633,5.935-1.875s1.723-3.384,1.671-6.332v-.667h-5.118v.667a6.976,6.976,0,0,1-.574,3.392,2.055,2.055,0,0,1-1.914,1.153,2.325,2.325,0,0,1-2.286-1.357,12.171,12.171,0,0,1-.623-4.658v-7.871a7.8,7.8,0,0,1,.672-3.725,2.409,2.409,0,0,1,2.237-1.171,1.916,1.916,0,0,1,1.786,1.026,6.02,6.02,0,0,1,.542,3.018v.671h5.11v-1.16a7.33,7.33,0,0,0-1.726-5.31C491.3,4527.147,489.378,4526.5,486.831,4526.5Z" fill="#00357d"/></g></svg>