<svg xmlns="http://www.w3.org/2000/svg" width="63.779" height="35.063" viewBox="0 0 63.779 35.063"><g transform="translate(-1583.221 -4522.072)"><path d="M1599.852,4551.352a4.484,4.484,0,0,0,1.555-3.7V4542.5h-7.217v6.988a1.811,1.811,0,0,1-1.812,1.811,1.756,1.756,0,0,1-1.738-1.811v-19.785a1.753,1.753,0,0,1,1.738-1.819,1.808,1.808,0,0,1,1.812,1.819v7.024h7.2v-7.3c0-4.029-2.638-7.349-9.072-7.364-6.608,0-9.1,3.343-9.1,7.364v20.673a7.028,7.028,0,0,0,7.245,7.026h2.235Z" fill="#161615"/><path d="M1628.271,4552.163v-22.711H1623.3v-6.7h18.012v6.7h-5v27.637h-2.139Z" fill="#161615"/><path d="M1631.49,4557.135l-17.534-14.655-18.151,14.655Z" fill="#fab600"/><path d="M1612.022,4538.526l1.94-9.9,1.934,9.9Zm6.95-15.731h-10.057l-5.841,26.186,10.888-8.767,11.37,9.494-6.36-26.913" fill="#161615"/><path d="M1644.821,4524.327c.366-.013.453-.157.453-.356s-.087-.282-.391-.282h-.478v.638h.416m-.416.393v1.087h-.4v-2.518h.82c.453,0,.95.13.95.7a.582.582,0,0,1-.528.582v.017c.366.062.4.218.435.489a2.887,2.887,0,0,0,.155.726h-.515c-.007-.141-.056-.287-.075-.445a.98.98,0,0,0-.143-.535c-.1-.107-.229-.094-.366-.107h-.329m2.222-.131a1.772,1.772,0,0,0-3.544,0,1.772,1.772,0,0,0,3.544,0m-3.917,0a2.145,2.145,0,1,1,2.154,2.132,2.137,2.137,0,0,1-2.154-2.132" fill="#161615"/></g></svg>