<svg xmlns="http://www.w3.org/2000/svg" width="250" height="250" viewBox="0 0 250 250"><g transform="translate(-983 -827)"><g transform="translate(983 827)" fill="#fff" stroke="#707070" stroke-width="1"><rect width="250" height="250" stroke="none"/><rect x="0.5" y="0.5" width="249" height="249" fill="none"/></g><g transform="translate(1014 846)"><g transform="translate(48.914 50.564)"><path d="M1106.247,921.066a1.962,1.962,0,0,0,1.3,1.583,3.838,3.838,0,0,1,1.91,1.621,4.133,4.133,0,0,1,.278,3.8,1.6,1.6,0,0,0,.253,1.89,1.745,1.745,0,0,0,1.984.389,4,4,0,0,1,5.414,2.154,1.822,1.822,0,0,0,1.64,1.2,1.713,1.713,0,0,0,1.64-1.179,4,4,0,0,1,5.285-2.24c1.543.481,2.115.164,2.621-1.512-.1-.307-.238-.665-.345-1.032a4,4,0,0,1,1.94-4.9c.256-.151.537-.265.781-.433a1.627,1.627,0,0,0-.069-2.839c-.215-.137-.45-.24-.675-.361a4.013,4.013,0,0,1-2.04-4.747c.124-.448.3-.881.427-1.242a1.95,1.95,0,0,0-1.79-1.72c-.292.095-.614.2-.938.3a4.052,4.052,0,0,1-5.142-2.138,5.5,5.5,0,0,0-.359-.675,1.609,1.609,0,0,0-2.148-.444,3.491,3.491,0,0,0-.9,1.191,4.056,4.056,0,0,1-5.059,2.075l-1.108-.353c-1.642.725-1.847,1.164-1.356,2.7a3.974,3.974,0,0,1-2.188,5.2A2.115,2.115,0,0,0,1106.247,921.066Z" transform="translate(-1047.065 -873.01)" fill="#fab600"/><path d="M1132.665,944.24v1.614c0,4.134.008,8.268-.009,12.4a19.333,19.333,0,0,1-.2,1.924l-1.327.492a16.665,16.665,0,0,1-1.151-1.216c-1.381-1.787-2.736-3.594-4.1-5.389-.226-.3-.473-.58-.8-.985-.894,1.157-1.721,2.222-2.542,3.293-.8,1.047-1.608,2.093-2.4,3.153-.44.594-.854,1.257-1.739.965-.953-.314-.847-1.16-.847-1.926q0-6.393,0-12.785v-1.54h-1.75q-29.853,0-59.706,0c-.469,0-.938.012-1.406-.007-1.132-.045-1.489-.409-1.553-1.566-.016-.3,0-.6,0-.895q0-31.389,0-62.775c0-.3-.016-.6.009-.895.085-1.034.479-1.411,1.543-1.468.426-.022.852-.009,1.279-.009h86.554c1.906.007,2.208.312,2.208,2.232q0,31.579-.007,63.158v.128c0,1.841-.241,2.092-2.035,2.094-2.813.006-5.625,0-8.438,0Zm9.547-2.467V879.117h-86.55c-.265,1.839-.177,61.753.077,62.629h61.7v-5.089c-.185-.049-.266-.077-.35-.091-3.2-.557-4.487-2.626-3.573-5.726.381-1.3.165-1.825-1.1-2.45a4.189,4.189,0,0,1-2.235-2.337,4.037,4.037,0,0,1,2.151-5.131c1.4-.757,1.6-1.215,1.117-2.652a4.091,4.091,0,0,1,5.186-5.3c1.622.52,1.989.323,2.8-1.22a3.889,3.889,0,0,1,3.589-2.27,3.966,3.966,0,0,1,3.719,2.278c.8,1.584,1.151,1.734,2.929,1.192a3.906,3.906,0,0,1,2.5-.022,4.124,4.124,0,0,1,2.591,5.251,8.489,8.489,0,0,0-.289,1.875c.539.343.944.647,1.388.877a3.91,3.91,0,0,1,2.325,3.792,3.871,3.871,0,0,1-2.359,3.636c-1.383.692-1.553,1.123-1.107,2.656.048.163.094.328.135.492a3.994,3.994,0,0,1-2.7,4.836c-.44.139-.9.224-1.395.346v5.088Zm-29.91-17.095a1.961,1.961,0,0,0,1.3,1.583,3.839,3.839,0,0,1,1.91,1.621,4.133,4.133,0,0,1,.278,3.8,1.6,1.6,0,0,0,.253,1.89,1.745,1.745,0,0,0,1.984.389,4,4,0,0,1,5.414,2.154,1.822,1.822,0,0,0,1.64,1.2,1.713,1.713,0,0,0,1.64-1.179A4,4,0,0,1,1132,933.9c1.543.481,2.115.164,2.621-1.512-.1-.307-.238-.665-.345-1.032a4,4,0,0,1,1.94-4.9c.256-.151.537-.265.781-.433a1.627,1.627,0,0,0-.069-2.839c-.215-.137-.45-.24-.675-.361a4.013,4.013,0,0,1-2.04-4.747c.124-.448.3-.881.427-1.242a1.95,1.95,0,0,0-1.79-1.72c-.292.095-.614.2-.938.3a4.052,4.052,0,0,1-5.142-2.138,5.518,5.518,0,0,0-.359-.675,1.609,1.609,0,0,0-2.148-.444,3.494,3.494,0,0,0-.9,1.191,4.056,4.056,0,0,1-5.059,2.075l-1.108-.353c-1.642.725-1.847,1.164-1.356,2.7a3.974,3.974,0,0,1-2.188,5.2A2.115,2.115,0,0,0,1112.3,924.677Zm7.742,11.464v19.52c1.357-1.8,2.548-3.4,3.771-4.985.9-1.163,1.654-1.159,2.549,0,.989,1.281,1.95,2.584,2.931,3.871.195.256.424.486.684.781.33-1.513.257-18.259-.061-19.118-.771.123-.915.805-1.207,1.352a3.953,3.953,0,0,1-4.479,2.12,3.728,3.728,0,0,1-2.785-2.2C1121.16,936.873,1120.936,936.2,1120.044,936.141Z" transform="translate(-1053.12 -876.621)" fill="#171100"/><path d="M1062.2,929.248a5.178,5.178,0,0,1,3.078,3.213h45.06l.845,2.327c-.49.039-.852.094-1.215.094q-22.5.007-45.005,0c-1.5,0-1.743-.159-2.03-1.538a2.1,2.1,0,0,0-1.763-1.767c-.4-.093-.8-.236-1.316-.392a18.872,18.872,0,0,1-.225-2.039q-.02-19.754-.006-39.508c0-1.535.146-1.7,1.626-2.094a2.091,2.091,0,0,0,1.687-1.706c.072-.371.192-.733.264-1a2.428,2.428,0,0,1,2-.585h10.612q27.554,0,55.107.011a19.53,19.53,0,0,1,2.009.2c.615,1.078.414,2.372,1.576,2.9l1.827.563c.374,1.079.474,21.932.143,23.526l-2.173-1.338V890.117a17.214,17.214,0,0,1-1.981-1.455,14.7,14.7,0,0,1-1.378-1.859h-65.691a5.238,5.238,0,0,1-3.049,3.1Z" transform="translate(-1052.379 -875.752)"/><path d="M1096.25,903.691h19.8a7.726,7.726,0,0,1,1.147.033,1.112,1.112,0,0,1,1,1.135,1.1,1.1,0,0,1-.862,1.126,3.853,3.853,0,0,1-1.008.1q-20.115.007-40.231,0c-.17,0-.342.01-.51-.006-.834-.079-1.339-.565-1.32-1.263.018-.652.48-1.061,1.3-1.117.382-.027.766-.011,1.15-.011Z" transform="translate(-1050.71 -873.537)" fill="#fff"/><path d="M1117.575,895.261c-.357.023-.816.08-1.276.08q-20.048.008-40.1,0a5.946,5.946,0,0,1-.892-.029,1.1,1.1,0,0,1-1.04-1.094,1.15,1.15,0,0,1,.946-1.2,3.841,3.841,0,0,1,.886-.074q20.175,0,40.351,0h.256a1.339,1.339,0,0,1,1.37.74C1118.348,894.283,1118.122,894.755,1117.575,895.261Z" transform="translate(-1050.709 -874.761)" fill="#fab600"/><path d="M1109.217,898.454c.733,1.486.382,2.173-.966,2.306-.253.025-.51.013-.767.013H1083.33c-.91,0-1.837.026-2.192-1.244l.379-.859a1.815,1.815,0,0,1,.433-.217,15.532,15.532,0,0,1,1.77-.166q11.693-.017,23.388,0C1107.819,898.288,1108.53,898.4,1109.217,898.454Z" transform="translate(-1049.927 -874.153)"/><path d="M1118.548,929.473a8.921,8.921,0,0,1-8.754-8.83,8.751,8.751,0,0,1,8.851-8.838,8.64,8.64,0,0,1,8.806,8.869A8.767,8.767,0,0,1,1118.548,929.473Zm-6.341-8.913a6.449,6.449,0,0,0,6.484,6.5,6.428,6.428,0,0,0,0-12.855A6.4,6.4,0,0,0,1112.207,920.56Z" transform="translate(-1046.661 -872.612)" fill="#fff"/><g transform="translate(17.421 45.69)"><path d="M1082.689,919.922l.31-.007c.3,0,.4-.173.4-.6s-.088-.627-.356-.627h-.355v4.528h-1.175v-5.467h1.765c.984,0,1.288.525,1.288,1.37,0,.6-.152,1.066-.709,1.213.479.087.7.452.7,1.082v1.327a.9.9,0,0,0,.1.476h-1.188a1.069,1.069,0,0,1-.081-.468v-1.454a.4.4,0,0,0-.417-.456h-.29v-.913m-11.3,2.36a.7.7,0,0,0,.245-.586v-.818H1070.5v1.11a.288.288,0,0,1-.287.287.279.279,0,0,1-.276-.287v-3.143a.278.278,0,0,1,.276-.286.287.287,0,0,1,.287.286v1.116h1.14V918.8c0-.639-.418-1.166-1.436-1.167-1.046,0-1.441.528-1.441,1.168v3.281a1.113,1.113,0,0,0,1.147,1.114h.353Zm29.487-2.37v-1.231h.358c.269,0,.357.2.357.628s-.1.6-.4.6h-.312l0,.921h.287a.4.4,0,0,1,.416.454v1.455a1.055,1.055,0,0,0,.082.467h1.187a.9.9,0,0,1-.1-.476v-1.327c0-.628-.224-.995-.7-1.081.557-.148.71-.616.71-1.214,0-.845-.3-1.37-1.288-1.37H1099.7v5.467h1.177v-2.376Zm-2.887,2.33-.12-1-.305-2.552-.3,2.552h.609l.12,1h-.85l-.116.966h-1.19l.939-5.477h1.578l.943,5.477h-1.19Zm-7.509.967v-5.465h1.2v4.428h1.255v1.037Zm-1.843,0h1.2v-5.465h-1.2Z" transform="translate(-1068.758 -917.637)" fill="#040506"/><path d="M1089.832,923.2v-5.465h1.2v4.428h1.255V923.2Zm2.748,0v-5.465h1.2v4.428h1.256V923.2Zm-4.994-3.816c0,.96-.183,1.649-1.263,1.649h-.658l0-.971.36,0c.3,0,.354-.164.354-.681,0-.5-.051-.71-.356-.71h-.357v1.387l0,.971v2.17h-1.176v-5.467h1.836c1.081,0,1.263.688,1.263,1.649m-8.755-.607v1.083h1.248v1.071h-1.248v1.214h1.48V923.2h-2.686v-5.465h2.635v1.043Zm-3.591,3.626v-3.6h-.788v-1.063h2.851V918.8h-.792v4.387h-.338Z" transform="translate(-1068.109 -917.626)" fill="#040506"/><path d="M1076.2,922.87l-2.776-2.326-2.876,2.326Z" transform="translate(-1068.554 -917.306)" fill="#fab600"/><path d="M1073,920.237l.307-1.571.305,1.571H1073l.307.266,1.8,1.507-1.007-4.272h-1.59l-.927,4.157,1.726-1.392Z" transform="translate(-1068.437 -917.625)" fill="#040506"/></g></g><g transform="translate(0.78 0)"><path d="M1084.664,842.541l1.708-.041c1.674,0,2.216-.971,2.216-3.4s-.486-3.541-1.966-3.541h-1.956V861.1h-6.474V830.259h9.719c5.423,0,7.1,2.962,7.1,7.729,0,3.379-.836,6.015-3.91,6.849,2.644.486,3.876,2.551,3.876,6.1v7.485a5.2,5.2,0,0,0,.577,2.685h-6.543a6.082,6.082,0,0,1-.452-2.639v-8.2c0-1.469-.736-2.568-2.3-2.568h-1.594v-5.154m-62.258,13.319a4.024,4.024,0,0,0,1.355-3.307V847.94h-6.288V854.2a1.6,1.6,0,0,1-1.582,1.62,1.554,1.554,0,0,1-1.522-1.62V836.471a1.552,1.552,0,0,1,1.522-1.619,1.6,1.6,0,0,1,1.582,1.619v6.3h6.281v-6.53c0-3.609-2.3-6.579-7.915-6.586-5.763,0-7.941,2.983-7.941,6.592v18.506a6.2,6.2,0,0,0,6.322,6.284h1.949ZM1184.9,842.483v-6.941h1.966c1.48,0,1.966,1.111,1.966,3.54s-.542,3.4-2.215,3.4H1184.9l.022,5.194h1.582c1.559,0,2.294,1.1,2.294,2.568v8.2a6.1,6.1,0,0,0,.451,2.639h6.544a5.187,5.187,0,0,1-.576-2.685v-7.486c0-3.546-1.233-5.611-3.877-6.1,3.073-.832,3.911-3.47,3.911-6.848,0-4.767-1.674-7.728-7.1-7.728h-9.719v30.842h6.485V847.677Zm-15.915,13.148-.66-5.641-1.681-14.391-1.681,14.394,3.362,0,.66,5.641-4.681,0-.638,5.452h-6.554l5.171-30.9h8.7l5.192,30.9h-6.555Zm-41.38,5.453v-30.83h6.633v24.977h6.916v5.853Zm-10.148,0h6.635v-30.83h-6.635Z" transform="translate(-1007.897 -829.65)" fill="#040506"/><path d="M1126.779,861.023v-30.83h6.791V855.17h7.08v5.853Zm15.5,0v-30.83h6.791V855.17h7.08v5.853Zm-28.169-21.529c0,5.415-1.029,9.3-7.126,9.3h-3.714l-.023-5.484,2.025.025c1.712,0,2-.926,2-3.841,0-2.823-.29-4-2.014-4h-2.013v7.819l.023,5.485v12.24h-6.639V830.194h10.354c6.1,0,7.126,3.887,7.126,9.3m-49.387-3.424v6.109h7.035v6.039h-7.035v6.849l8.351,0,0,5.95-15.149.006v-30.83H1072.8v5.882Zm-20.257,20.455V836.187h-4.441v-5.993h16.08v5.993h-4.466v24.748h-1.9Z" transform="translate(-1006.327 -829.589)" fill="#040506"/><path d="M1049.863,859.171,1034.2,846.052l-16.228,13.119Z" transform="translate(-1006.748 -827.781)" fill="#fab600"/><path d="M1031.808,844.315l1.734-8.862,1.723,8.862h-3.458l1.734,1.5,10.148,8.5-5.682-24.1h-8.971l-5.228,23.449,9.733-7.853Z" transform="translate(-1006.083 -829.585)" fill="#040506"/></g><g transform="translate(0 145.915)"><path d="M1026.529,984.719v.885q.083,5.232-1.941,7.457t-6.856,2.225q-5.125,0-7.224-2.415t-2.1-8.3v-9.176q0-5.927,2.1-8.342t7.224-2.415q4.451,0,6.6,2.257,2.025,2.11,2,6.265v1.456h-6.055v-.887a7.028,7.028,0,0,0-.6-3.469,2.1,2.1,0,0,0-1.952-1.151,2.63,2.63,0,0,0-2.468,1.319,9.026,9.026,0,0,0-.76,4.292V983.9a14.217,14.217,0,0,0,.707,5.4,2.542,2.542,0,0,0,2.52,1.52,2.236,2.236,0,0,0,2.1-1.3,8.385,8.385,0,0,0,.643-3.913v-.885Z" transform="translate(-1007.059 -964.637)" fill="#161615" stroke="#161615" stroke-miterlimit="10" stroke-width="1.5"/><path d="M1031.614,994.8V965.034h14.871v4.43h-8.775v7.868h8.479v4.43h-8.479v8.605h8.943v4.43Z" transform="translate(-1004.414 -964.592)" fill="#161615" stroke="#161615" stroke-miterlimit="10" stroke-width="1.5"/><path d="M1052,965.034h8.944q4.789,0,6.834,1.772t2.046,5.949q0,4.725-2.067,6.371a7.826,7.826,0,0,1-3.186,1.287h.338a4.484,4.484,0,0,1,3.765,1.635,6.885,6.885,0,0,1,1.129,4.671q-.063,1.731-.042,3.607.042,1.942.127,2.943a6.909,6.909,0,0,0,.253,1.508h-6.076a6.97,6.97,0,0,1-.21-1.477q-.064-.991-.063-2.974v-3.607a4.36,4.36,0,0,0-.844-3.152,4.179,4.179,0,0,0-3.078-.918h-1.772V994.8H1052Zm6.1,13.058h1.687q2.363,0,3.154-.875t.791-3.491a4.948,4.948,0,0,0-.833-3.333,4.223,4.223,0,0,0-3.111-.885h-1.687Z" transform="translate(-1003.361 -964.592)" fill="#161615" stroke="#161615" stroke-miterlimit="10" stroke-width="1.5"/><path d="M1080.082,969.464h-6.412v-4.43h18.921v4.43h-6.413V994.8h-6.1Z" transform="translate(-1001.514 -964.592)" fill="#161615" stroke="#161615" stroke-miterlimit="10" stroke-width="1.5"/><path d="M1096.95,965.034h6.1V994.8h-6.1Z" transform="translate(-999.349 -964.592)" fill="#161615" stroke="#161615" stroke-miterlimit="10" stroke-width="1.5"/><path d="M1109.967,994.8V965.034h14.26v4.43h-8.164v8.1h7.721v4.43h-7.721v12.8h-6.1Z" transform="translate(-998.335 -964.592)" fill="#161615" stroke="#161615" stroke-miterlimit="10" stroke-width="1.5"/><path d="M1129.707,965.034h6.1V994.8h-6.1Z" transform="translate(-996.484 -964.592)" fill="#161615" stroke="#161615" stroke-miterlimit="10" stroke-width="1.5"/><path d="M1142.763,994.8V965.034h14.87v4.43h-8.775v7.868h8.481v4.43h-8.481v8.605h8.944v4.43Z" transform="translate(-996.203 -964.592)" fill="#161615" stroke="#161615" stroke-miterlimit="10" stroke-width="1.5"/><path d="M1163.486,965.034h8.016q5.736,0,8.184,2.268t2.447,7.584v8.331q.02,6.707-2.141,9.143t-8.153,2.437h-8.354Zm6.1,25.292h1.6q2.867,0,3.86-1.17t.991-4.525V974.8q0-3.018-1.107-4.156t-4.06-1.138h-1.287Z" transform="translate(-993.841 -964.592)" fill="#161615" stroke="#161615" stroke-miterlimit="10" stroke-width="1.5"/><path d="M1012.239,1026.608l-5.042-29.763h5.391l3.3,22.614h-.007l3.786-22.614h6.2l4.158,22.971h.011l3.228-22.971h5.132l-4.957,29.763h-6.919l-3.918-21.158h.007l-3.45,21.158h-6.919Z" transform="translate(-1007.197 -960.966)" fill="#161615" stroke="#161615" stroke-miterlimit="10" stroke-width="1.5"/><path d="M1040.757,1024.819q-2.089-2.278-2.089-7.826v-12.256q0-4.156,2.31-6.223t6.95-2.068q4.64,0,6.961,2.068t2.32,6.223v12.256q0,5.548-2.089,7.826t-7.193,2.278Q1042.844,1027.1,1040.757,1024.819Zm9.661-3.374a8.952,8.952,0,0,0,.7-4.2V1004.99a4.833,4.833,0,0,0-.813-3.037,2.835,2.835,0,0,0-2.373-1.034,2.806,2.806,0,0,0-2.363,1.034,4.893,4.893,0,0,0-.8,3.037v12.256a8.938,8.938,0,0,0,.7,4.2,3.194,3.194,0,0,0,4.957,0Z" transform="translate(-1004.505 -961.012)" fill="#161615" stroke="#161615" stroke-miterlimit="10" stroke-width="1.5"/><path d="M1060.009,996.845h8.944q4.787,0,6.834,1.772t2.046,5.948q0,4.727-2.068,6.371a7.815,7.815,0,0,1-3.185,1.287h.338a4.488,4.488,0,0,1,3.765,1.635,6.883,6.883,0,0,1,1.127,4.672q-.062,1.731-.041,3.607.042,1.942.126,2.942a6.909,6.909,0,0,0,.254,1.509h-6.076a6.954,6.954,0,0,1-.212-1.477q-.063-.991-.062-2.974v-3.607a4.364,4.364,0,0,0-.844-3.154,4.186,4.186,0,0,0-3.079-.918H1066.1v12.15h-6.1Zm6.1,13.057h1.688q2.363,0,3.154-.875t.791-3.491a4.952,4.952,0,0,0-.833-3.333,4.23,4.23,0,0,0-3.111-.886H1066.1Z" transform="translate(-1002.675 -960.966)" fill="#161615" stroke="#161615" stroke-miterlimit="10" stroke-width="1.5"/><path d="M1086.537,1026.608h-6.1V996.845h6.1v13.691h.011l6.533-13.691h6.471l-6.477,13.1,6.581,16.664h-6.622l-6.507-16.072h.008Z" transform="translate(-1000.939 -960.966)" fill="#161615" stroke="#161615" stroke-miterlimit="10" stroke-width="1.5"/><path d="M1112.711,1006.108v-.887a6.214,6.214,0,0,0-.589-3.332,2.433,2.433,0,0,0-2.21-.97,2.926,2.926,0,0,0-2.336.9,4,4,0,0,0-.779,2.689,3.358,3.358,0,0,0,.928,2.383,10.45,10.45,0,0,0,3.2,2.068,20.2,20.2,0,0,1,6.342,4.2,7.289,7.289,0,0,1,1.818,5.021q0,4.473-2.329,6.7t-7.01,2.225q-5.1,0-7.22-1.993t-2.12-6.508v-1.161h6.012v.887a5.055,5.055,0,0,0,.79,3.227,3,3,0,0,0,2.534,1.075,3.07,3.07,0,0,0,2.483-.97,4.454,4.454,0,0,0,.821-2.932,3.518,3.518,0,0,0-1-2.51,12.024,12.024,0,0,0-3.48-2.236,18.786,18.786,0,0,1-6.072-4.029,7.08,7.08,0,0,1-1.736-4.872q0-4.324,2.33-6.475t7.009-2.152q4.806,0,6.788,2,1.857,1.9,1.835,6.117l0,.654v.887Z" transform="translate(-999.225 -961.012)" fill="#161615" stroke="#161615" stroke-miterlimit="10" stroke-width="1.5"/><path d="M1121.853,996.845h6.1v12.3h5.8v-12.3h6.1v29.763h-6.1v-13.036h-5.8v13.036h-6.1Z" transform="translate(-997.378 -960.966)" fill="#161615" stroke="#161615" stroke-miterlimit="10" stroke-width="1.5"/><path d="M1145.15,1024.819q-2.089-2.278-2.089-7.826v-12.256q0-4.156,2.31-6.223t6.95-2.068q4.639,0,6.961,2.068t2.319,6.223v12.256q0,5.548-2.088,7.826t-7.193,2.278Q1147.237,1027.1,1145.15,1024.819Zm9.66-3.374a8.952,8.952,0,0,0,.7-4.2V1004.99a4.841,4.841,0,0,0-.812-3.037,2.835,2.835,0,0,0-2.373-1.034,2.8,2.8,0,0,0-2.363,1.034,4.884,4.884,0,0,0-.8,3.037v12.256a8.938,8.938,0,0,0,.7,4.2,3.194,3.194,0,0,0,4.957,0Z" transform="translate(-996.169 -961.012)" fill="#161615" stroke="#161615" stroke-miterlimit="10" stroke-width="1.5"/><path d="M1164.5,996.845h9.029q4.851,0,6.919,2.025t2.066,6.771q0,5.379-2.088,7.246t-8.1,1.867h-1.729v11.854h-6.1Zm6.1,13.437h1.729q2.446,0,3.27-.907t.823-3.649a5.253,5.253,0,0,0-.854-3.481q-.854-.927-3.238-.928h-1.729Z" transform="translate(-993.726 -960.966)" fill="#161615" stroke="#161615" stroke-miterlimit="10" stroke-width="1.5"/></g></g></g></svg>