<svg xmlns="http://www.w3.org/2000/svg" width="30.503" height="35.432" viewBox="0 0 30.503 35.432"><g transform="translate(-656.884 -33.114)"><path d="M676.324,42.478Z" fill="#fff"/><path d="M679.9,43.541a10.623,10.623,0,0,0-21.244.039,2.82,2.82,0,0,0,1.051,5.437,2.857,2.857,0,0,0,.335-.019,2.948,2.948,0,0,0,1.221-.44,9.3,9.3,0,0,1-1.34-4.817,3.133,3.133,0,0,1,.013-.356,9.35,9.35,0,0,1,18.687.005c0,.118.008.237.008.351a9.256,9.256,0,0,1-1.284,4.711c-1.656,2.393-3.175,3.3-6.618,3.323a1.485,1.485,0,0,0-1.4-1.02,1.469,1.469,0,0,0,0,2.937,1.488,1.488,0,0,0,1.384-.966c4.687-.009,6.193-.956,8.04-3.715.062.006.127.006.177.006a2.823,2.823,0,0,0,.973-5.476Z" fill="#fff"/><path d="M674.065,49.932A15.563,15.563,0,0,0,675.61,44.2s.512-2-2.73-2.2c0,0-4.4.414-5.017.131a7.33,7.33,0,0,0,2.737,1.235s-4.724.572-6.127-1.962a3.765,3.765,0,0,0-1.48,3.586l.848,3.261s1.586,5.686,5.14,6.27a3.366,3.366,0,0,0,1.812-.389l2.28-.167a5.837,5.837,0,0,1-3.966,1.932s-2.124.255-4.468-2.912a22.832,22.832,0,0,1-3.05-8.729s-1.328-7.455,7.427-8.43a7.636,7.636,0,0,1,8.058,6.65,20.724,20.724,0,0,1-1.145,6.515A2.877,2.877,0,0,1,674.065,49.932Z" fill="#fff"/><path d="M658.978,60.7h.98a2.026,2.026,0,0,1-.334,1.3,1.343,1.343,0,0,1-1.08.4,1.619,1.619,0,0,1-1.251-.443,2.318,2.318,0,0,1-.409-1.528v-.865a2.542,2.542,0,0,1,.378-1.575,1.555,1.555,0,0,1,1.263-.47,1.422,1.422,0,0,1,1.031.354,1.786,1.786,0,0,1,.351,1.241h-.973a1.753,1.753,0,0,0-.1-.648.323.323,0,0,0-.31-.226h-.043a.457.457,0,0,0-.453.356,4.727,4.727,0,0,0-.126,1.38v.2a3.626,3.626,0,0,0,.13,1.179.486.486,0,0,0,.456.336h.045C658.83,61.687,658.978,61.359,658.978,60.7Z" fill="#fff"/><path d="M660.562,57.6h1v3.259c0,.553.212.829.629.829s.643-.271.643-.817V57.6h.995v3.353a1.361,1.361,0,0,1-.434,1.072,1.75,1.75,0,0,1-1.185.376,1.887,1.887,0,0,1-1.21-.355,1.365,1.365,0,0,1-.437-1.093Z" fill="#fff"/><path d="M664.508,60.858h.994a1.414,1.414,0,0,0,.112.66.5.5,0,0,0,.427.169.509.509,0,0,0,.368-.128.553.553,0,0,0,.13-.4.573.573,0,0,0-.132-.364,1.89,1.89,0,0,0-.49-.376l-.633-.384a1.531,1.531,0,0,1-.531-.507,1.4,1.4,0,0,1-.189-.7c0-.879.523-1.309,1.559-1.309q1.371,0,1.372,1.266v.173h-.976a1.051,1.051,0,0,0-.11-.537.334.334,0,0,0-.327-.181.58.58,0,0,0-.382.12.489.489,0,0,0-.13.369.667.667,0,0,0,.169.394,2.111,2.111,0,0,0,.495.362l.238.136a3.83,3.83,0,0,1,.765.577,1.154,1.154,0,0,1,.307.848,1.244,1.244,0,0,1-.414,1.018,1.95,1.95,0,0,1-1.257.336,1.189,1.189,0,0,1-1.365-1.316Z" fill="#fff"/><path d="M667.863,57.6h3.262v.783H669.99v3.946h-1V58.382h-1.127Z" fill="#fff"/><path d="M671.526,59.636a2.626,2.626,0,0,1,.394-1.665,1.93,1.93,0,0,1,2.481,0,2.49,2.49,0,0,1,.4,1.638v.722a2.355,2.355,0,0,1-.422,1.653,1.65,1.65,0,0,1-1.2.417,1.509,1.509,0,0,1-1.268-.483,2.485,2.485,0,0,1-.385-1.538v-.743Zm1.016.34a5.454,5.454,0,0,0,.114,1.351.5.5,0,0,0,.516.36.47.47,0,0,0,.5-.376,4.886,4.886,0,0,0,.127-1.368,4.662,4.662,0,0,0-.13-1.353.484.484,0,0,0-.5-.35.493.493,0,0,0-.51.359A5.633,5.633,0,0,0,672.542,59.976Z" fill="#fff"/><path d="M675.57,57.6h1.6l.743,3.255.8-3.255h1.556v4.729h-.968v-3.7l-.94,3.7h-.948l-.886-3.7v3.7h-.966Z" fill="#fff"/><path d="M681.081,62.328V57.6h2.6v.727h-1.6v1.151h1.466v.73h-1.466V61.59h1.639v.738Z" fill="#fff"/><path d="M684.351,62.328V57.6h1.829a1.152,1.152,0,0,1,.795.274,1.225,1.225,0,0,1,.321.966,1.02,1.02,0,0,1-.9,1.15,1.06,1.06,0,0,1,.687.289,1.134,1.134,0,0,1,.2.765,4.628,4.628,0,0,0,.11,1.285h-.977a.872.872,0,0,1-.1-.394c0-.2-.005-.345,0-.46a1.87,1.87,0,0,0-.107-.869c-.071-.164-.268-.255-.59-.255h-.266v1.978Zm.992-2.7h.44a.433.433,0,0,0,.38-.2.966.966,0,0,0,.123-.492c0-.407-.165-.61-.511-.61h-.432Z" fill="#fff"/><path d="M658.967,66.849h.977a2.03,2.03,0,0,1-.331,1.3,1.339,1.339,0,0,1-1.08.4,1.627,1.627,0,0,1-1.253-.444,2.321,2.321,0,0,1-.4-1.528v-.865a2.615,2.615,0,0,1,.369-1.575,1.562,1.562,0,0,1,1.263-.47,1.376,1.376,0,0,1,1.019.355,1.692,1.692,0,0,1,.361,1.24h-.973a2.017,2.017,0,0,0-.095-.647.332.332,0,0,0-.321-.227h-.04a.459.459,0,0,0-.452.356,4.747,4.747,0,0,0-.125,1.381v.2a3.653,3.653,0,0,0,.127,1.179.49.49,0,0,0,.456.336h.05C658.828,67.833,658.967,67.5,658.967,66.849Z" fill="#fff"/><path d="M660.219,68.474l1.331-4.73h1.313l1.284,4.73H663.1l-.264-1.064h-1.366l-.279,1.064Zm1.459-1.786h.95l-.49-2.042Z" fill="#fff"/><path d="M664.579,68.474v-4.73h1.838a1.139,1.139,0,0,1,.791.275,1.237,1.237,0,0,1,.319.965,1.021,1.021,0,0,1-.893,1.15,1.069,1.069,0,0,1,.678.29,1.146,1.146,0,0,1,.193.765,4.144,4.144,0,0,0,.122,1.285h-.988a.916.916,0,0,1-.092-.394,4.454,4.454,0,0,1,0-.461,2.018,2.018,0,0,0-.106-.868c-.082-.164-.279-.256-.6-.256h-.262v1.979Zm1-2.7h.437a.443.443,0,0,0,.384-.2.889.889,0,0,0,.126-.492c0-.407-.171-.61-.516-.61h-.431Z" fill="#fff"/><path d="M668.277,68.474v-4.73h2.587v.727h-1.6v1.152h1.47v.73h-1.47v1.383h1.643v.738Z" fill="#fff"/></g></svg>