<svg xmlns="http://www.w3.org/2000/svg" width="23.817" height="23.849" viewBox="0 0 23.817 23.849"><g transform="translate(-530.139 -4234.472)"><path d="M553.706,4246.455a11.659,11.659,0,1,1-11.534-11.733A11.625,11.625,0,0,1,553.706,4246.455Z" fill="none" stroke="#000" stroke-miterlimit="10" stroke-width="0.5"/><path d="M539.8,4244.089v8.778h2.546v-.752c0-1.3-.018-2.593.009-3.89a1.864,1.864,0,0,1,1.89-1.882,1.7,1.7,0,0,1,1.666,1.832c.02.571.007,1.142.007,1.714,0,.983,0,1.966,0,2.983h2.551a.886.886,0,0,0,.068-.215c0-2,.062-4-.046-6a3.188,3.188,0,0,0-.836-1.788,3.668,3.668,0,0,0-4.815-.158c-.139.116-.279.229-.465.381l-.07-1.005Z"/><path d="M535.613,4244.1v8.753h2.557V4244.1Z"/><path d="M535.318,4241.19a1.528,1.528,0,0,0,1.574,1.581,1.6,1.6,0,1,0-.029-3.2A1.548,1.548,0,0,0,535.318,4241.19Z"/></g></svg>