<svg xmlns="http://www.w3.org/2000/svg" width="23.859" height="23.85" viewBox="0 0 23.859 23.85"><g transform="translate(-568.379 -4234.471)"><path d="M580.4,4242.328a4.059,4.059,0,0,0-.231,8.114,4.059,4.059,0,1,0,.231-8.114Zm-.107,6.748a2.68,2.68,0,1,1,2.706-2.664A2.717,2.717,0,0,1,580.289,4249.076Z"/><path d="M585.171,4242.333a.883.883,0,0,1-.878.934.856.856,0,0,1-.837-.854.821.821,0,0,1,.879-.855A.812.812,0,0,1,585.171,4242.333Z"/><path d="M587.778,4242.968a4.022,4.022,0,0,0-4.034-4.019c-1.144-.011-2.288,0-3.431,0-1.078,0-2.155,0-3.233,0a4.058,4.058,0,0,0-4.234,4.231q0,3.233,0,6.465a4.059,4.059,0,0,0,4.014,4.2q3.462.081,6.927,0a4.032,4.032,0,0,0,3.993-4.141C587.786,4247.454,587.792,4245.211,587.778,4242.968Zm-1.321,6.724a2.737,2.737,0,0,1-2.768,2.833q-3.365.039-6.731,0a2.761,2.761,0,0,1-2.795-2.819q-.021-3.335,0-6.668a2.743,2.743,0,0,1,2.748-2.783h.132q1.65,0,3.3,0c1.1,0,2.2-.01,3.3,0a2.709,2.709,0,0,1,2.812,2.836Q586.469,4246.394,586.457,4249.692Z"/><path d="M591.988,4246.388a11.679,11.679,0,1,1-11.67-11.667A11.7,11.7,0,0,1,591.988,4246.388Z" fill="none" stroke="#000" stroke-miterlimit="10" stroke-width="0.5"/></g></svg>