<svg xmlns="http://www.w3.org/2000/svg" width="180.288" height="45.285" viewBox="0 0 180.288 45.285"><g transform="translate(-272.886 -28.187)"><rect width="134.916" height="44.859" transform="translate(273.032 28.471)" fill="#fab600"/><rect width="44.975" height="44.859" transform="translate(407.948 28.471)" fill="#0c0905"/><path d="M423,57.7a2.685,2.685,0,0,0,.932-2.216V52.4H419.6v4.187a1.086,1.086,0,0,1-1.086,1.086,1.053,1.053,0,0,1-1.042-1.086V44.727a1.051,1.051,0,0,1,1.042-1.09,1.084,1.084,0,0,1,1.086,1.09v4.209h4.314V44.564c0-2.413-1.58-4.4-5.436-4.412-3.959,0-5.451,2-5.451,4.412V56.951a4.211,4.211,0,0,0,4.341,4.21h1.339Z" fill="#fff"/><path d="M440.024,58.182V44.574h-2.981V40.559h10.792v4.014h-2.994V61.133h-1.281Z" fill="#fff"/><path d="M441.953,61.161,431.447,52.38l-10.876,8.781Z" fill="#fab600"/><path d="M441.953,61.161,431.447,52.38l-10.876,8.781Z" fill="none" stroke="#fb0" stroke-width="0"/><path d="M430.288,50.011l1.162-5.931,1.159,5.931Zm4.164-9.425h-6.025l-3.5,15.69,6.524-5.253,6.813,5.688-3.811-16.125" fill="#fff"/><path d="M449.94,41.5c.22-.007.272-.094.272-.213s-.052-.169-.234-.169h-.287V41.5h.249m-.249.236v.651h-.242V40.881h.491c.272,0,.569.078.569.422a.349.349,0,0,1-.316.349v.01c.22.037.242.131.261.293a1.687,1.687,0,0,0,.093.435h-.309c0-.084-.034-.172-.045-.266a.587.587,0,0,0-.085-.321c-.064-.064-.138-.056-.22-.064h-.2m1.332-.079a1.062,1.062,0,0,0-2.124,0,1.062,1.062,0,0,0,2.124,0m-2.347,0a1.285,1.285,0,1,1,1.29,1.278,1.28,1.28,0,0,1-1.29-1.278" fill="#fff"/><path d="M306.605,57.368c2.479-.053,3.515.114,3.515-2.722,0-2.447-1.4-2.388-3.515-2.475v5.2m0-8.991c2.166-.138,3.18,0,3.18-2.5,0-2.071-1.43-1.989-3.18-1.989v4.493m-4.949,12.784V40.084h6.412c3.746,0,6.677,1.219,6.677,5.463a4.721,4.721,0,0,1-2.395,4.435v.059c2.257,1.28,2.726,2.408,2.726,5.029,0,4.263-2.414,6.091-6.446,6.091Z" fill="#0c0905"/><path d="M324.546,53.522a18.245,18.245,0,0,0-2.25,1.15,2.252,2.252,0,0,0-1.046,2.022,1.558,1.558,0,0,0,1.659,1.686c1.321,0,1.609-1.38,1.637-2.39V53.522m.164,6.236a4.686,4.686,0,0,1-3.854,1.909,3.912,3.912,0,0,1-4.11-4.214c0-3.568,1.931-4.694,3.917-5.34,1.942-.645,3.883-.841,3.883-2.532a1.468,1.468,0,0,0-1.413-1.624c-1.633,0-1.633,1.129-1.715,2.447h-4.475c-.2-3.938,2.45-5.419,6.052-5.419,4.421,0,6.026,1.339,6.026,4.8v9.64a5.338,5.338,0,0,0,.372,1.738h-4.367Z" fill="#0c0905"/><path d="M335.693,45.427V47.4h.056a3.638,3.638,0,0,1,3.132-2.417c2.1,0,4,1.147,4,3.281v12.9h-4.489V49.924c-.048-.739-.327-1.343-1.175-1.293a1.146,1.146,0,0,0-1.213,1.293V61.161h-4.478V45.427Z" fill="#0c0905"/><path d="M349.828,55.436c0,.869.284,1.676,1.331,1.676,1.206,0,1.345-1.093,1.345-2.042V50.713c0-1.069-.247-2.082-1.46-2.082-1.157,0-1.242,1.518-1.216,2.332v4.473m-.108,6.6c0,1.089.167,1.574,1.465,1.486.927-.083,1.319-.281,1.347-1.3v-3.17h-.056a4.274,4.274,0,0,1-3.176,1.712c-2.816,0-3.947-2.523-3.947-4.94V50.371c0-2.471.9-5.387,3.859-5.387a3.861,3.861,0,0,1,3.55,2.354h.056V45.427h4.172V61.474c0,3.675-2.65,4.994-6,4.994-3.385,0-5.641-.813-5.75-4.436Z" fill="#0c0905"/><rect width="4.478" height="21.077" transform="translate(359.997 40.084)" fill="#0c0905"/><path d="M374.61,53.522a19.762,19.762,0,0,0-2.258,1.15,2.281,2.281,0,0,0-1.034,2.022,1.558,1.558,0,0,0,1.659,1.686c1.325,0,1.605-1.38,1.633-2.39V53.522m.168,6.236a4.682,4.682,0,0,1-3.848,1.909,3.92,3.92,0,0,1-4.122-4.214c0-3.568,1.944-4.694,3.921-5.34,1.939-.645,3.881-.841,3.881-2.532a1.465,1.465,0,0,0-1.406-1.624c-1.633,0-1.633,1.129-1.711,2.447h-4.478c-.207-3.938,2.446-5.419,6.052-5.419,4.418,0,6.021,1.339,6.021,4.8v9.64a5.491,5.491,0,0,0,.367,1.738H375.09Z" fill="#0c0905"/><rect width="180.003" height="45" transform="translate(273.028 28.33)" fill="none" stroke="#fff" stroke-width="0.285"/></g></svg>