<svg xmlns="http://www.w3.org/2000/svg" width="250" height="250" viewBox="0 0 250 250"><g transform="translate(-707 -828)"><g transform="translate(707 828)" fill="#fff" stroke="#707070" stroke-width="1"><rect width="250" height="250" stroke="none"/><rect x="0.5" y="0.5" width="249" height="249" fill="none"/></g><g transform="translate(761.988 851)"><path d="M757.863,964.433V849.13c0-10.658,7.649-19.24,17.179-19.24H878.493c9.531,0,17.179,8.582,17.179,19.24v115.3c0,10.658-7.649,19.24-17.179,19.24H775.042c-9.53.169-17.179-8.582-17.179-19.24ZM802.6,1012.59c0-3.421-2.533-6.283-5.617-6.283-3.059,0-5.593,2.862-5.593,6.283s2.533,6.283,5.593,6.283C800.071,1018.873,802.6,1016.011,802.6,1012.59Zm57.507,0c0-3.421-2.559-6.283-5.618-6.283s-5.617,2.862-5.617,6.283,2.557,6.283,5.617,6.283S860.111,1016.011,860.111,1012.59Z" transform="translate(-755.78 -829.89)" fill="#040506" stroke="#040506" stroke-miterlimit="33.89" stroke-width="0.213" fill-rule="evenodd"/><path d="M851.258,897.127a25.137,25.137,0,0,1,1.529,8.677,26.282,26.282,0,0,1-52.564,0,26.806,26.806,0,0,1,2.232-10.383l20.915-48.5a51.87,51.87,0,1,0,55.3,51.738,51.278,51.278,0,0,0-2.909-16.852l-24.5,15.323Z" transform="translate(-755.78 -829.89)" fill="#ffd625" stroke="#ffd625" stroke-miterlimit="33.89" stroke-width="0.213" fill-rule="evenodd"/><path d="M847.169,887.421,871.346,872.1a51.848,51.848,0,0,0-41.532-25.179l17.355,40.5Z" transform="translate(-755.78 -829.89)" fill="#ffd625" stroke="#ffd625" stroke-miterlimit="33.89" stroke-width="0.213" fill-rule="evenodd"/><path d="M827.783,899.684l-5.09-11.059-8.5,6.119,9.179,19.737,19.712-12.414a14.092,14.092,0,0,1,.352,3.736,16.918,16.918,0,1,1-32.654-6.47l15.8-37.618,12.765,30.646-11.563,7.323Z" transform="translate(-755.78 -824.719)" fill="#757778" stroke="#757778" stroke-miterlimit="33.89" stroke-width="0.213" fill-rule="evenodd"/><path d="M875.257,880.449l-51.361,32-8-17.205,6.295-4.589,4.915,11.06L872.024,873.3c1.2,2.382,2.382,4.765,3.411,7.324l-.178-.177Z" transform="translate(-755.78 -823.905)" fill="#fff" fill-rule="evenodd"/><path d="M840.1,976.628c-3.737-3.361-8.4-4.841-14.4-4.841h-.026c-5.969,0-10.758,1.229-14.37,4.841-4.313,4.314-6.922,8.175-6.922,16.125s2.283,11.989,6.922,16.127c3.736,3.335,8.4,4.814,14.37,4.814a.025.025,0,0,0,.026.025c5.993,0,10.658-1.48,14.4-4.839,4.64-4.138,6.921-8.177,6.921-16.127S844.738,980.766,840.1,976.628Zm-14.346,29.843c-.05,0-.05-.024-.076-.024-5.994-.025-10.784-5.643-10.784-13.518,0-7.85,4.79-13.492,10.784-13.518h.076c5.869,0,10.709,5.467,10.709,13.518,0,8.1-4.84,13.542-10.709,13.542Z" transform="translate(-755.78 -809.89)" fill="#040506" fill-rule="evenodd"/><path d="M814.892,992.929c0-7.875,4.816-13.518,10.86-13.518,5.869,0,10.709,5.467,10.709,13.518,0,8.1-4.84,13.542-10.709,13.542-6.044,0-10.86-5.618-10.86-13.542m32.127-.176c0,7.95-2.281,11.989-6.921,16.127-3.737,3.359-8.4,4.839-14.4,4.839s-10.659-1.48-14.4-4.839c-4.639-4.138-6.922-8.177-6.922-16.127s2.609-11.811,6.922-16.125c3.612-3.612,8.4-4.841,14.4-4.841s10.658,1.48,14.4,4.841c4.64,4.138,6.921,8.175,6.921,16.125" transform="translate(-755.78 -809.89)" fill="none" stroke="#040506" stroke-miterlimit="33.89" stroke-width="0.213"/><path d="M764.936,1008.93a16.544,16.544,0,0,0,12.339,5.165c8.051.126,13.266-4.815,13.266-12.84,0-6.821-3.761-9.455-13.066-12.264l-3.963-1.178c-3.938-1.2-5.969-2.256-6.069-4.389a4.623,4.623,0,0,1,4.639-4.639c3.035,0,8.025.652,9.329,7h8.4V973.116h-8.778l.175,3.661c-2.332-3.009-6.8-4.514-11.286-4.514-8.25,0-13.593,4.313-13.718,12.665-.125,6.972,6.42,10.158,14.094,12.514l4.866,1.48c3.536,1.079,4.289,2.458,4.289,4.464,0,2.156-2.357,4.263-5.392,4.263-3.561,0-7.549-.652-8.953-8.05h-9.33v13.492h9.33l-.174-4.161Zm104.554,0a16.544,16.544,0,0,0,12.339,5.165c8.05.126,13.267-4.815,13.267-12.84,0-6.821-3.761-9.455-13.067-12.264l-3.963-1.178c-3.936-1.2-5.968-2.256-6.067-4.389a4.624,4.624,0,0,1,4.638-4.639c3.036,0,8.026.652,9.331,7h8.4V973.116h-8.778l.177,3.661c-2.333-3.009-6.8-4.514-11.287-4.514-8.249,0-13.592,4.313-13.717,12.665-.125,6.972,6.42,10.158,14.094,12.514l4.865,1.48c3.536,1.079,4.289,2.458,4.289,4.464,0,2.156-2.357,4.263-5.393,4.263-3.561,0-7.549-.652-8.954-8.05h-9.329v13.492h9.329l-.175-4.161Z" transform="translate(-755.78 -809.89)" fill="#040506" stroke="#040506" stroke-miterlimit="33.89" stroke-width="0.213" fill-rule="evenodd"/></g></g></svg>