<svg xmlns="http://www.w3.org/2000/svg" width="23.841" height="23.846" viewBox="0 0 23.841 23.846"><g transform="translate(-644.909 -4234.473)"><path d="M660.277,4248.581a.551.551,0,0,1,.031.373,1.68,1.68,0,0,1-1.923,1.1,6.949,6.949,0,0,1-5.088-4.776,2.167,2.167,0,0,1-.077-.461,1.85,1.85,0,0,1,.983-1.786.661.661,0,0,1,.536-.046,2.137,2.137,0,0,1,.416,2.291.834.834,0,0,0-.083.676,5.039,5.039,0,0,0,2.451,2.471c.154.081.516-.074.689-.226A1.283,1.283,0,0,1,660.277,4248.581Z"/><path d="M660.387,4239.946a7.047,7.047,0,0,0-7.515.216,7.367,7.367,0,0,0-2.854,9.187,2.574,2.574,0,0,1,.161,1.191c-.1,1.046-.261,2.087-.417,3.254.658-.111,1.212-.239,1.772-.292a6.794,6.794,0,0,1,2.632-.128,7.431,7.431,0,0,0,10.019-7.081A6.956,6.956,0,0,0,660.387,4239.946Zm-5.416,12.3a5.9,5.9,0,0,0-3.134-.066c-.147.026-.295.046-.529.081.068-.532.107-.969.183-1.4a3.254,3.254,0,0,0-.267-1.952,6.136,6.136,0,1,1,11.644-3.564A6.087,6.087,0,0,1,654.971,4252.244Z"/><path d="M656.79,4258.069a11.673,11.673,0,1,1,11.71-11.635A11.644,11.644,0,0,1,656.79,4258.069Z" fill="none" stroke="#000" stroke-miterlimit="10" stroke-width="0.5"/></g></svg>