<svg xmlns="http://www.w3.org/2000/svg" width="23.816" height="23.848" viewBox="0 0 23.816 23.848"><g transform="translate(-606.661 -4234.472)"><path d="M606.911,4246.389a11.658,11.658,0,1,1,11.635,11.681A11.659,11.659,0,0,1,606.911,4246.389Z" fill="none" stroke="#000" stroke-miterlimit="10" stroke-width="0.5"/><path d="M625.557,4243.279a1.809,1.809,0,0,0-1.735-1.7,45.576,45.576,0,0,0-10.456-.006,1.8,1.8,0,0,0-1.792,1.856c-.079,1.947-.086,3.9-.008,5.849a1.785,1.785,0,0,0,1.858,1.919c1.723.172,3.456.256,5.205.379,1.721-.124,3.454-.216,5.177-.387a1.764,1.764,0,0,0,1.747-1.674A20.207,20.207,0,0,0,625.557,4243.279Zm-8.4,5.262v-4.289l3.716,2.127Z"/></g></svg>